<?xml version="1.0" encoding="UTF-8" standalone="no"?>
<!-- Created with Inkscape (http://www.inkscape.org/) -->

<svg
   width="294.33521mm"
   height="57.83564mm"
   viewBox="0 0 294.33521 57.83564"
   version="1.1"
   id="svg1"
   inkscape:version="1.3 (0e150ed6c4, 2023-07-21)"
   sodipodi:docname="Gnomon.svg"
   xmlns:inkscape="http://www.inkscape.org/namespaces/inkscape"
   xmlns:sodipodi="http://sodipodi.sourceforge.net/DTD/sodipodi-0.dtd"
   xmlns="http://www.w3.org/2000/svg"
   xmlns:svg="http://www.w3.org/2000/svg">
  <sodipodi:namedview
     id="namedview1"
     pagecolor="#505050"
     bordercolor="#eeeeee"
     borderopacity="1"
     inkscape:showpageshadow="0"
     inkscape:pageopacity="0"
     inkscape:pagecheckerboard="0"
     inkscape:deskcolor="#d1d1d1"
     inkscape:document-units="mm"
     inkscape:zoom="0.52347032"
     inkscape:cx="559.7261"
     inkscape:cy="127.03681"
     inkscape:window-width="1920"
     inkscape:window-height="1027"
     inkscape:window-x="0"
     inkscape:window-y="29"
     inkscape:window-maximized="1"
     inkscape:current-layer="layer1" />
  <defs
     id="defs1" />
  <g
     inkscape:label="Calque 1"
     inkscape:groupmode="layer"
     id="layer1"
     transform="translate(8.2039897,-87.237561)">
    <path
       style="fill:none;stroke:#ffffff;stroke-width:4;stroke-linecap:round;stroke-linejoin:round;stroke-dasharray:none;stroke-opacity:1;paint-order:fill markers stroke"
       d="m 21.653645,106.00059 c 0,0 -7.43533,-0.041 -7.43533,4.87019 0,4.91123 4.41356,8.1216 8.446699,7.89802 4.536186,-0.25147 14.634142,-5.32692 14.715096,-13.02478 0.07588,-7.215312 -6.72303,-16.673598 -20.592228,-16.504248 -13.8691976,0.16936 -22.875565,11.650718 -22.9905759,21.569408 -0.1163983,10.03834 7.9061771,26.86024 29.0985649,26.61923 29.781884,-0.3387 40.358874,-47.76823 114.112739,-47.41944 29.81342,0.14099 40.51189,6.244695 57.64635,21.16799 19.67989,0.28703 74.69586,0.16813 74.69586,0.16813 0,0 1.35771,-3.20765 8.33631,-2.95173 8.16006,0.29925 8.67989,16.4139 0.9284,16.73699 -6.00456,0.25028 -6.97624,-0.14959 -9.30537,-2.75417 -7.84129,-0.0172 -75.26243,-0.45243 -75.26243,-0.45243 0,0 -25.76965,19.70631 -56.91946,21.08171 -31.14981,1.37541 -51.504862,-18.65617 -56.742,-24.37194 12.103631,-9.60237 33.71035,-14.90267 56.54585,-15.43155 21.24407,-0.49202 34.07967,13.43969 34.07967,13.43969 0,0 -10.93586,10.66188 -34.38561,11.70183 -20.20003,0.89583 -27.74321,-10.24214 -27.74321,-10.24214"
       id="path1"
       sodipodi:nodetypes="csssssssccssccscscsc" />
  </g>
</svg>
